<?xml version="1.0" encoding="UTF-8"?>
<svg viewBox="0 0 512 512" xmlns="http://www.w3.org/2000/svg">
 <rect x="-51.2" y="-51.2" width="614.4" height="614.4" fill="#4c25e0"/>
 <path d="m336.61 376.91h-161.22v-20.152h70.535v-23.012c0-18.73-4.75-37.156-13.793-53.539l0.074219 0.125-28.652-3.0117c-35.68-3.7422-62.801-33.656-63.152-69.41l-0.011719-1.082 0.23828-46.555 0.0625-12.316 12.055 2.4922 45.582 9.4609c35.492 7.3555 59.625 40.391 55.832 76.426l-3.7148 35.355 0.41406 0.78125c4.1055 7.7578 7.4062 15.871 9.8633 24.219l0.0625 0.21484 0.45312-0.60547c1.5117-2.0273 3.1094-4.0039 4.8242-5.8945l0.011719-0.011718v-24.598c0-27.672 20.391-51.047 47.711-54.879l0.83203-0.11328 40.898-5.1133 12.848-1.5977-1.5977 12.848-5.1133 40.898c-3.4648 27.734-27.043 48.543-54.992 48.543h-27.734l-0.125 0.15234c-7.9844 9.9609-12.57 22.434-12.723 35.52v14.711h70.535zm8.5391-149.62-28.023 3.5156c-17.645 2.2031-30.895 17.203-30.895 34.992v20.43h20.43c17.609 0 32.48-12.984 34.926-30.367l0.0625-0.52734zm-184.43-54.602-0.17578 34.234c-0.125 25.883 19.371 47.648 45.117 50.355l25.758 2.707 2.707-25.758c2.6836-25.48-14.195-48.867-39.121-54.438l-0.75391-0.16406z" fill="#fff"/>
</svg>
