<?xml version="1.0" encoding="UTF-8"?>
<svg viewBox="0 0 1200 1200" xmlns="http://www.w3.org/2000/svg">
  <rect x="0" y="0" width="1200" height="1200" fill="#6A2AAC"/>
  <path d="m1123 575-47.668-47.668c-33.637-33.402-74.285-58.91-119-74.664 20.543-42.758 31.25-89.566 31.336-137v-66.668c0-9.4609-3.7578-18.531-10.449-25.219-6.6875-6.6914-15.758-10.449-25.219-10.449h-66.668c-47.434 0.085938-94.242 10.793-137 31.336-15.801-44.594-41.301-85.125-74.664-118.67l-48.336-49c-6.7266-6.5742-15.758-10.258-25.164-10.258-9.4102 0-18.441 3.6836-25.168 10.258l-47.668 47.668c-33.363 33.543-58.863 74.07-74.664 118.66-42.758-20.539-89.566-31.246-137-31.332h-66.668c-9.6328-0.17969-18.93 3.543-25.773 10.324s-10.652 16.043-10.559 25.676v66.668c0.082031 47.434 10.789 94.242 31.332 137-44.707 15.766-85.355 41.27-119 74.664l-48 48.668c-6.6562 6.6836-10.395 15.734-10.395 25.168 0 9.4336 3.7383 18.48 10.395 25.164l47.668 47.668c33.637 33.406 74.285 58.91 119 74.668-20.543 42.754-31.25 89.566-31.336 137v66.668-0.003907c0 9.4609 3.7578 18.531 10.449 25.223 6.6875 6.6875 15.758 10.445 25.219 10.445h66.668c47.434-0.085938 94.242-10.793 137-31.332 15.789 44.598 41.293 85.129 74.664 118.66l47.668 47.668c6.7266 6.5742 15.758 10.258 25.168 10.258 9.4062 0 18.438-3.6836 25.164-10.258l47.668-47.668c33.371-33.535 58.875-74.066 74.668-118.66 42.754 20.539 89.566 31.246 137 31.332h66.668-0.003907c9.4609 0 18.531-3.7578 25.223-10.445 6.6875-6.6914 10.445-15.762 10.445-25.223v-66.668 0.003907c-0.085938-47.434-10.793-94.246-31.332-137 44.594-15.801 85.121-41.305 118.66-74.668l47.668-47.668c6.8516-6.4609 10.895-15.348 11.27-24.758 0.375-9.4102-2.9531-18.59-9.2695-25.574zm-206.33-291.33v33.332c-0.58594 54.195-18.793 106.73-51.863 149.66-33.074 42.938-79.223 73.945-131.47 88.34-14.215-41.512-46.82-74.117-88.332-88.332 14.719-52.277 46.082-98.324 89.332-131.17s96.027-50.691 150.34-50.832zm-316.67 387.33c-18.812-0.089844-36.816-7.6367-50.066-20.992-13.25-13.352-20.66-31.418-20.602-50.23 0.058594-18.809 7.582-36.828 20.914-50.098 13.332-13.27 31.387-20.707 50.199-20.68 18.809 0.03125 36.84 7.5234 50.133 20.836 13.289 13.312 20.754 31.352 20.754 50.164-0.085937 18.859-7.6406 36.918-21.008 50.227-13.371 13.305-31.465 20.773-50.324 20.773zm-22.668-496 22.668-22.668 22.668 22.668c29.758 29.859 51.438 66.793 63 107.33-35.617 28.328-64.812 63.891-85.668 104.34-20.895-40.328-50.09-75.77-85.668-104 11.512-40.66 33.195-77.715 63-107.67zm-293.66 108.67h33.332c54.207 0.49219 106.78 18.613 149.78 51.629 42.996 33.016 74.078 79.129 88.551 131.37-41.637 14.129-74.379 46.75-88.664 88.332-52.461-14.535-98.734-45.82-131.77-89.086-33.039-43.266-51.027-96.145-51.23-150.58zm-108.67 339-22.332-22.668 22.668-22.668h-0.003907c29.871-29.746 66.801-51.422 107.34-63 28.23 35.578 63.672 64.773 104 85.668-40.328 20.895-75.77 50.09-104 85.668-40.656-11.527-77.707-33.207-107.67-63zm108.67 294v-33.336c0.49219-54.207 18.613-106.78 51.629-149.78 33.016-43 79.129-74.082 131.37-88.555 14.285 41.582 47.027 74.203 88.664 88.332-14.656 52.336-45.992 98.461-89.246 131.37-43.258 32.906-96.07 50.801-150.42 50.965zm339 108.33-22.668 22.668-22.668-22.668c-29.758-29.859-51.438-66.793-63-107.33 35.617-28.328 64.812-63.891 85.668-104.34 20.895 40.328 50.09 75.77 85.668 104-11.512 40.66-33.195 77.715-63 107.67zm294-108.33h-33.336c-54.25-0.51562-106.86-18.688-149.86-51.766s-74.062-79.266-88.473-131.57c41.512-14.215 74.117-46.82 88.332-88.332 52.336 14.656 98.461 45.992 131.37 89.25 32.906 43.254 50.801 96.066 50.965 150.42zm108.33-294c-29.859 29.758-66.793 51.438-107.33 63-28.23-35.578-63.676-64.773-104-85.668 40.324-20.895 75.77-50.09 104-85.668 40.539 11.562 77.473 33.242 107.33 63l22.668 22.668z" fill="#fff"/>
</svg>
